# xmcd
#
# Track frame offsets: 
#        150
#        12077
#        31467
#        46974
#        59576
#        75403
#        87951
#        102174
#        120117
#        131925
#        146056
#        170654
#
# Disc length: 2467 seconds
#
# Revision: 3
# Processed by: cddbd v1.5.2PL0 Copyright (c) Steve Scherf et al.
# Submitted via: ExactAudioCopy v0.95b3
#
DISCID=9a09a10c
DTITLE=Gene Watson and Rhonda Vincent - Your Money And My Good Looks
DYEAR=2011
DGENRE=Country
TTITLE0=Your Money And My Good Looks
TTITLE1=Gone For Good
TTITLE2=It Ain't Nothin' New
TTITLE3=You Could Know As Much About A Stranger
TTITLE4=Till The End
TTITLE5=Alone Together Tonight
TTITLE6=Out Of Hand
TTITLE7=This Wanting You
TTITLE8=Making Everything Perfect Tonight
TTITLE9=Sweet Thang
TTITLE10=My Sweet Love Ain't Around
TTITLE11=Ashes Of Mt. Augustine (feat. ACM Musicians Of The Year) [Bon
TTITLE11=us Instrumental]
EXTD=
EXTT0=
EXTT1=
EXTT2=
EXTT3=
EXTT4=
EXTT5=
EXTT6=
EXTT7=
EXTT8=
EXTT9=
EXTT10=
EXTT11=
PLAYORDER=
